<svg width="363" height="349" viewBox="0 0 363 349" fill="none" xmlns="http://www.w3.org/2000/svg">
<g clip-path="url(#clip0_8_184)">
<path d="M261.878 140.398L260.504 130.804L262.011 130.682C262.842 130.615 263.091 130.405 262.563 130.227C262.038 130.038 262.369 129.313 263.309 128.609C264.238 127.903 264.833 126.739 264.256 124.693L265.631 123.845L275.383 133.018L273.631 140.743L272.26 142.253C271.502 143.091 270.581 143.706 270.196 143.63C269.822 143.557 268.457 143.526 267.16 143.557C265.873 143.601 264.151 142.898 261.878 140.398Z" fill="#A0BAC1"/>
<path d="M259.718 153.265L261.354 140.622C263.727 143.183 265.518 143.909 266.856 143.869C268.203 143.843 269.622 143.881 270.011 143.957C270.411 144.036 271.365 143.412 272.149 142.561L273.567 141.025C270.929 150.057 270.344 150.575 265.266 151.861L259.718 153.265Z" fill="#B7D1D8"/>
<path d="M120.916 212.806L127.288 210.708L128.356 211.978C129.138 212.899 128.963 213.308 127.717 213.498C126.385 213.704 126.411 214.005 129.634 215.964L130.308 217.463C131.46 220.027 137.019 219.02 144.62 212.276L140.595 219.63C132.001 223.988 129.665 223.47 126.145 218.609C124.359 216.138 122.455 214.395 121.915 214.745C121.379 215.084 120.929 214.781 120.922 214.083L120.916 212.806Z" fill="#233F59"/>
<path d="M129.442 215.906L140.8 208.022C145.287 207.808 145.559 208.137 145.018 210.524L144.599 212.37C136.943 218.966 131.319 219.922 130.135 217.388L129.442 215.906Z" fill="#B7D1D8"/>
<path d="M76.1825 230.03L75.122 224.839L85.4977 223.48L86.0245 231.024L84.4269 233.136L81.9664 232.888C80.6098 232.753 78.7561 232.048 76.1825 230.03Z" fill="#B7D1D8"/>
<path d="M127.539 210.733L138.943 204.836L140.548 207.624L129.685 216.067C126.648 214.118 126.628 213.811 127.9 213.578C129.09 213.363 129.264 212.942 128.535 212.013L127.539 210.733Z" fill="#87A5B5"/>
<path d="M86.2685 230.832L85.6197 223.764L91.4705 222.783C93.5497 224.039 92.7174 225.327 90.1083 227.55L86.2685 230.832Z" fill="#A0BAC1"/>
<path d="M73.6323 233.79L73.7109 231.409C73.7583 230.101 74.2638 229.136 75.8526 229.496C78.7658 231.548 80.8406 232.294 82.347 232.468L85.0795 232.787C87.0536 235.022 80.2681 235.919 76.8283 234.815L73.6323 233.79Z" fill="#091A33"/>
<path d="M69.9131 225.201L74.713 225.136L75.9935 230.041C74.4689 229.695 73.9833 230.623 73.9372 231.882L73.8607 234.171C71.1156 231.98 70.2229 229.955 70.1147 228.269L69.9131 225.201Z" fill="#233F59"/>
<path d="M157.632 186.955L156.821 185.599L157.327 183.37L167.513 192.711L165.133 193.343L157.632 186.955Z" fill="#87A5B5"/>
<path d="M260.677 130.925L259.052 128.164L264.366 124.583C264.882 126.674 264.293 127.88 263.394 128.622C262.484 129.36 262.156 130.111 262.654 130.296C263.155 130.469 262.914 130.69 262.118 130.773L260.677 130.925Z" fill="#87A5B5"/>
<path d="M162.453 195.811L157.417 187.492L165.163 194.033L162.453 195.811Z" fill="#B7D1D8"/>
<path d="M157.28 183.576L156.663 186.296C153.815 182.49 153.413 181.112 153.93 180.771C154.447 180.431 155.408 180.921 156.075 181.858L157.28 183.576Z" fill="#B7D1D8"/>
<path fill-rule="evenodd" clip-rule="evenodd" d="M58.1885 194.001L57.9353 195.118L57.6968 200.053C57.1771 210.889 71.4774 214.871 94.3934 210.264C123.617 204.399 142.057 184.841 125.975 169.455L108.214 170.124L108.18 170.273C102.992 170.605 92.8732 172.159 82.1066 177.506C68.7731 184.127 61.226 190.769 58.7846 193.62C58.5893 193.744 58.3907 193.871 58.1885 194.001ZM70.4455 190.384L69.1501 192.049C64.6745 197.808 68.3809 197.357 83.2252 190.345C91.8624 186.269 102.857 182.152 108.793 180.774C122.813 177.512 124.602 173.369 107.328 174.581L71.0376 190.205L70.4455 190.384Z" fill="#233F59"/>
<path d="M71.025 189.755L83.3924 181.902L107.458 174.334C124.91 173.057 123.136 177.249 109.045 180.567C103.093 181.964 92.0676 186.131 83.4046 190.253C68.516 197.345 64.8004 197.805 69.2946 191.992L71.025 189.755Z" fill="#F7F9F7"/>
<path d="M275.192 133.254L260.692 119.412C236.851 95.9933 236.243 94.7881 241.615 93.3441C247.274 91.8245 251.331 93.4832 259.412 100.628C267.034 107.363 267.034 107.363 270.65 105.521C284.253 98.5788 287.459 99.8921 284.872 111.302C282.715 120.817 282.864 121.144 295.377 133.949C306.067 144.887 306.067 144.887 302.008 146.347C296.238 148.404 292.753 147.18 283.414 139.774L275.192 133.254Z" fill="#F7F9F7"/>
<path d="M315.725 333.928L291.361 311.924L192.075 216.431L167.965 193.308L157.204 183.805L156.165 182.381C155.59 181.603 154.767 181.193 154.328 181.47C153.89 181.747 154.242 182.887 156.696 186.044L162.736 195.654L139.335 205.65L127.508 211.209L121.163 213.301L91.924 223.151L85.8326 224.125L75.0205 225.204L70.2997 225.311L68.1932 225.54C42.1339 228.307 33.3675 213.477 58.2704 195.51L58.0291 200.458C57.5034 211.321 71.8051 215.306 94.7294 210.675C123.964 204.778 142.419 185.162 126.342 169.745L130.42 168.586C132.668 167.942 136.449 167.01 138.816 166.511C143.836 165.448 143.914 165.725 131.012 154.324L91.5722 115.954L52.64 75.3449L49.7974 72.3462L43.2495 64.976L28.1741 48.6096L20.5095 40.9862L3.70824 21.8743C4.59543 9.98646 8.79757 5.6422 18.1291 2.23729C28.191 -1.43753 30.3016 -0.700019 27.8314 5.63779C25.4114 11.8575 25.9515 12.6862 45.6816 32.8624L60.1027 47.6091L64.9249 52.2337L68.8841 55.4857L71.7266 58.4844L117.968 103.105L167.915 152.098L169.216 153.664C175.698 161.478 177.919 162.041 205.529 157.095L220.46 154.677C245.31 150.67 245.271 150.685 259.083 128.038L260.809 130.783L262.128 140.5L260.452 153.068L254.97 156.533L203.701 175.514L199.932 177.896C196.163 180.279 196.163 180.279 238.877 222.334L306.742 290.692L308.29 292.926C309.136 294.166 313.619 298.89 326.639 311.683L344.557 331.048L342.436 331.344C341.272 331.504 339.401 332.198 338.271 332.883C335.199 334.776 338.086 336.184 345.166 333.54C368.606 326.636 366.833 335.18 349.986 341.696C339.51 345.747 329.267 344.32 320.476 337.571L315.725 333.928Z" fill="#F7F9F7"/>
</g>
<defs>
<clipPath id="clip0_8_184">
<rect width="364" height="349" fill="white"/>
</clipPath>
</defs>
</svg>
